HIERARCHY
ROOT Hips
{
	OFFSET -3.958830 18.904000 13.208200
	CHANNELS 6 Xposition Yposition Zposition Zrotation Yrotation Xrotation 
	JOINT LHipJoint
	{
		OFFSET 0.000000 0.000000 0.000000
		CHANNELS 3 Zrotation Yrotation Xrotation
		JOINT LeftUpLeg
		{
			OFFSET 1.800000 -1.400000 0.085000
			CHANNELS 3 Zrotation Yrotation Xrotation
			JOINT LeftLeg
			{
				OFFSET 2.215000 -6.000000 0.000000
				CHANNELS 3 Zrotation Yrotation Xrotation
				JOINT LeftFoot
				{
					OFFSET 2.500000 -6.900000 0.000000
					CHANNELS 3 Zrotation Yrotation Xrotation
					JOINT LeftToeBase
					{
						OFFSET 0.200000 -0.500000 1.950000
						CHANNELS 3 Zrotation Yrotation Xrotation
						End Site
						{
							OFFSET 0.000000 0.000000 0.000000
						}
					}
				}
			}
		}
	}
	JOINT RHipJoint
	{
		OFFSET 0.000000 0.000000 0.000000
		CHANNELS 3 Zrotation Yrotation Xrotation
		JOINT RightUpLeg
		{
			OFFSET -1.800000 -1.400000 0.085000
			CHANNELS 3 Zrotation Yrotation Xrotation
			JOINT RightLeg
			{
				OFFSET -2.215000 -6.000000 0.000000
				CHANNELS 3 Zrotation Yrotation Xrotation
				JOINT RightFoot
				{
					OFFSET -2.500000 -6.900000 0.000000
					CHANNELS 3 Zrotation Yrotation Xrotation
					JOINT RightToeBase
					{
						OFFSET -0.200000 -0.500000 1.950000
						CHANNELS 3 Zrotation Yrotation Xrotation
						End Site
						{
							OFFSET 0.000000 0.000000 0.000000
						}
					}
				}
			}
		}
	}
	JOINT LowerBack
	{
		OFFSET 0.000000 0.000000 0.000000
		CHANNELS 3 Zrotation Yrotation Xrotation
		JOINT Spine
		{
			OFFSET -0.087000 1.940000 -0.288900
			CHANNELS 3 Zrotation Yrotation Xrotation
			JOINT Spine1
			{
				OFFSET 0.000000 1.950000 0.060000
				CHANNELS 3 Zrotation Yrotation Xrotation
				JOINT Neck
				{
					OFFSET 0.000000 0.000000 0.000000
					CHANNELS 3 Zrotation Yrotation Xrotation
					JOINT Neck1
					{
						OFFSET 0.000000 1.600000 0.340000
						CHANNELS 3 Zrotation Yrotation Xrotation
						JOINT Head
						{
							OFFSET 0.000000 1.667000 -0.240000
							CHANNELS 3 Zrotation Yrotation Xrotation
							End Site
							{
								OFFSET 0.000000 0.000000 0.000000
							}
						}
					}
				}
				JOINT LeftShoulder
				{
					OFFSET 0.000000 0.000000 0.000000
					CHANNELS 3 Zrotation Yrotation Xrotation
					JOINT LeftArm
					{
						OFFSET 2.700000 1.550000 -0.730000
						CHANNELS 3 Zrotation Yrotation Xrotation
						JOINT LeftForeArm
						{
							OFFSET 5.450000 0.000000 0.000000
							CHANNELS 3 Zrotation Yrotation Xrotation
							JOINT LeftHand
							{
								OFFSET 3.450000 0.000000 0.000000
								CHANNELS 3 Zrotation Yrotation Xrotation
								JOINT LeftHandIndex1
								{
									OFFSET 0.750000 0.000000 0.000000
									CHANNELS 3 Zrotation Yrotation Xrotation
									End Site
									{
										OFFSET 0.000000 0.000000 0.000000
									}
								}
							}
						}
					}
				}
				JOINT RightShoulder
				{
					OFFSET 0.000000 0.000000 0.000000
					CHANNELS 3 Zrotation Yrotation Xrotation
					JOINT RightArm
					{
						OFFSET -2.700000 1.550000 -0.730000
						CHANNELS 3 Zrotation Yrotation Xrotation
						JOINT RightForeArm
						{
							OFFSET -5.450000 0.000000 0.000000
							CHANNELS 3 Zrotation Yrotation Xrotation
							JOINT RightHand
							{
								OFFSET -3.450000 0.000000 0.000000
								CHANNELS 3 Zrotation Yrotation Xrotation
								JOINT RightHandIndex1
								{
									OFFSET -0.750000 0.000000 0.000000
									CHANNELS 3 Zrotation Yrotation Xrotation
									End Site
									{
										OFFSET 0.000000 0.000000 0.000000
									}
								}
							}
						}
					}
				}
			}
		}
	}
}
MOTION
Frames: 4
Frame Time: 0.016667
-2.962140 16.702690 -2.845320 -16.564454 -58.608781 0.505088 -15.318266 13.679319 3.353217 -4.352084 -0.619371 -30.100767 2.510097 8.767821 41.264575 -0.147802 6.725853 2.010238 0.485790 0.081150 0.583730 17.975009 -10.575191 3.262286 -1.787453 9.650704 15.520947 10.413329 -13.121579 49.308314 -1.676255 -9.430057 1.417345 0.065430 -0.033950 0.106650 -2.264401 -2.383702 -8.092898 7.367856 9.602024 29.995204 -10.111274 15.833898 -4.277889 12.328567 -8.282575 -10.263153 -15.020675 15.831836 42.784482 -5.083840 13.310490 -11.766110 -23.435993 8.049005 -4.102250 -44.078761 13.025758 -8.933354 -15.062502 -8.334635 -1.746320 -3.612743 2.598683 0.747200 -0.052640 0.095640 0.059350 -2.843660 8.209528 6.643259 -12.778832 9.378576 -2.129711 -11.888764 12.799196 -0.419719 2.257375 -1.271454 -0.254890 0.160480 -0.071600 -0.402670 
-2.954370 16.687380 -2.852560 -15.915559 -58.360123 -0.447066 -15.288869 13.546802 3.419329 -5.203106 -1.203384 -29.722553 3.286652 8.309288 41.797751 -0.119964 6.676203 2.040051 0.545750 0.151710 0.647510 17.995809 -10.656972 3.263271 -3.101813 9.542551 16.136157 12.053837 -14.095006 48.290080 -1.729836 -9.508092 1.392186 0.093690 -0.082570 0.095750 -2.465977 -2.142295 -8.089100 7.788315 9.113159 29.735747 -10.490812 15.230314 -2.340953 11.937013 -7.743150 -10.543007 -14.418955 15.493808 43.770683 -5.254830 13.312150 -12.825560 -24.250417 5.681297 -3.128959 -42.885375 12.356373 -8.885979 -15.401725 -9.166368 -1.647252 -3.531920 2.635267 0.759260 -0.086040 0.139130 0.077270 -1.230643 9.179553 6.698407 -14.206632 7.858420 -2.326803 -11.764525 12.509785 -0.399842 2.282406 -1.261215 -0.234680 0.164010 -0.129820 -0.407100 
-2.949750 16.645120 -2.890930 -14.468316 -60.053503 -2.097869 -15.368097 13.600948 3.568464 -5.491390 -2.040083 -30.207506 3.537942 8.334692 43.434745 -0.081782 6.959252 1.943353 0.572130 0.169990 0.689070 17.923778 -10.526127 3.057048 -5.811388 8.669852 17.734754 12.751000 -14.431473 45.321643 -1.691026 -9.309460 1.446214 0.103860 -0.117740 0.082340 -2.144958 -2.697663 -8.083565 4.754438 9.398688 30.410741 -9.221549 15.013894 -2.639060 11.696625 -7.842308 -10.543942 -15.223918 16.179118 43.809467 -5.958650 14.059030 -14.656000 -25.178516 5.076471 -2.925105 -41.819755 11.986278 -8.934759 -14.391031 -11.280353 -1.452910 -3.473146 2.647109 0.809280 -0.118600 0.170340 0.079430 0.508237 9.753103 6.654956 -14.873682 6.617834 -2.565802 -12.045772 12.787228 -0.388653 2.279855 -1.223694 -0.250060 0.179040 -0.150820 -0.431430 
-2.879850 16.634470 -2.886970 -16.556427 -61.143577 0.440906 -15.441935 13.813592 3.833078 -4.107471 -3.323367 -31.538466 2.486309 8.310744 43.523097 -0.049213 7.009485 1.904494 0.558000 0.140270 0.647040 17.856610 -10.191710 2.902287 -6.954358 7.490774 17.248676 13.174612 -14.697759 43.693570 -1.638796 -9.103649 1.487694 0.066760 -0.129450 0.090230 -1.850567 -3.782940 -8.251222 4.144767 7.763024 32.377143 -8.280556 13.261574 -8.556188 12.009401 -9.815969 -10.533387 -19.660761 19.415351 43.276592 -4.991060 15.256330 -12.991890 -25.629008 8.527042 -3.299293 -42.901523 15.995013 -10.986532 -13.017012 -18.996513 -0.969327 -3.388124 2.800060 0.815250 -0.151250 0.167650 0.081330 1.072050 8.591351 6.033268 -11.644601 9.669767 -2.701783 -13.472864 13.543033 -0.547465 2.320083 -1.226630 -0.226240 0.128500 -0.136810 -0.416180 
